<svg width="218" height="31" fill="none" xmlns="http://www.w3.org/2000/svg"><path d="M.92 30V.91h12.556c2.16 0 4.049.425 5.668 1.277 1.62.853 2.879 2.05 3.778 3.594.9 1.544 1.35 3.348 1.35 5.412 0 2.084-.464 3.888-1.392 5.412-.919 1.525-2.211 2.699-3.878 3.523-1.657.824-3.594 1.236-5.81 1.236h-7.5v-6.137h5.91c.927 0 1.718-.16 2.371-.483a3.53 3.53 0 0 0 1.52-1.406c.36-.606.54-1.321.54-2.145 0-.833-.18-1.543-.54-2.13-.35-.597-.857-1.052-1.52-1.364-.653-.322-1.444-.483-2.372-.483H8.817V30H.92Zm49.409-18.182h-8.012a5.436 5.436 0 0 0-.454-1.804 4.073 4.073 0 0 0-.995-1.392 4.147 4.147 0 0 0-1.52-.909c-.596-.218-1.273-.327-2.03-.327-1.326 0-2.449.322-3.367.966-.91.644-1.6 1.568-2.074 2.77-.464 1.203-.696 2.647-.696 4.332 0 1.78.237 3.272.71 4.475.483 1.193 1.18 2.093 2.088 2.699.91.596 2.003.895 3.281.895.73 0 1.383-.09 1.96-.27a4.6 4.6 0 0 0 1.506-.81c.427-.35.772-.772 1.037-1.264.275-.502.46-1.065.554-1.69l8.012.056c-.095 1.231-.44 2.486-1.037 3.765-.597 1.269-1.444 2.443-2.543 3.522-1.089 1.07-2.438 1.932-4.048 2.586-1.61.653-3.48.98-5.611.98-2.67 0-5.066-.573-7.188-1.719-2.111-1.146-3.783-2.831-5.014-5.057-1.221-2.225-1.832-4.948-1.832-8.168 0-3.238.625-5.965 1.875-8.181 1.25-2.226 2.935-3.907 5.057-5.043C32.108 1.084 34.476.511 37.09.511c1.837 0 3.527.251 5.071.753 1.544.502 2.898 1.236 4.063 2.202a10.873 10.873 0 0 1 2.812 3.537c.71 1.401 1.141 3.006 1.293 4.815ZM49.912.91h9.83l6.76 16.477h.342L73.604.91h9.83V30h-7.727V13.182h-.227l-6.477 16.59h-4.66l-6.477-16.704h-.227V30h-7.727V.91Z" fill="#007F4E"/><path d="M81.213 30 86.043.91h11.476c2.197 0 4.001.42 5.412 1.263 1.421.834 2.415 1.994 2.983 3.48.578 1.478.711 3.182.398 5.114-.322 1.941-1.023 3.65-2.102 5.128-1.07 1.468-2.462 2.614-4.176 3.437-1.714.824-3.694 1.236-5.938 1.236h-7.315l.81-4.929h6.32c1.194 0 2.212-.203 3.054-.61.853-.417 1.53-.99 2.032-1.72.502-.738.828-1.585.98-2.542.161-.975.109-1.823-.157-2.543-.265-.72-.752-1.278-1.462-1.676-.701-.407-1.644-.61-2.827-.61h-4.148L87.363 30h-6.15Zm50.989-14.148c-.53 3.106-1.558 5.744-3.082 7.912-1.516 2.169-3.367 3.817-5.554 4.943-2.178 1.127-4.527 1.69-7.046 1.69-2.642 0-4.919-.6-6.832-1.803-1.904-1.203-3.282-2.94-4.134-5.213-.852-2.282-1.013-5.034-.483-8.253.512-3.116 1.53-5.758 3.054-7.926 1.525-2.178 3.386-3.836 5.583-4.972 2.197-1.146 4.559-1.719 7.088-1.719 2.623 0 4.886.606 6.789 1.819 1.913 1.212 3.291 2.964 4.134 5.255.852 2.282 1.013 5.038.483 8.267Zm-6.122-.724c.331-1.998.317-3.674-.043-5.029-.35-1.363-.994-2.395-1.932-3.096-.937-.7-2.121-1.051-3.551-1.051-1.553 0-2.978.388-4.275 1.164-1.288.777-2.377 1.904-3.267 3.381-.881 1.468-1.492 3.253-1.833 5.355-.341 2.008-.331 3.684.029 5.029.369 1.344 1.027 2.362 1.974 3.054.956.681 2.145 1.022 3.565 1.022 1.544 0 2.955-.378 4.233-1.136 1.288-.767 2.372-1.88 3.253-3.338.881-1.468 1.496-3.253 1.847-5.355ZM130.4 30 135.23.91h11.477c2.197 0 4.006.387 5.426 1.164 1.43.776 2.434 1.88 3.011 3.31.588 1.42.725 3.096.412 5.028-.322 1.932-1.018 3.589-2.088 4.971-1.06 1.383-2.443 2.448-4.147 3.197-1.696.738-3.661 1.108-5.895 1.108h-7.685l.852-4.944h6.676c1.175 0 2.178-.16 3.012-.483.833-.322 1.491-.805 1.974-1.448.493-.644.815-1.445.966-2.401.161-.975.104-1.79-.17-2.443-.275-.663-.772-1.165-1.492-1.506-.72-.35-1.666-.526-2.841-.526h-4.147L136.551 30H130.4Zm17.898-13.239L153.34 30h-6.789l-4.887-13.239h6.634Zm7.456-10.78.852-5.072h23.892l-.852 5.071h-8.906L166.762 30h-6.079l3.977-24.02h-8.906ZM177.063 30h-6.591L185.344.91h7.926L198.469 30h-6.591l-3.537-22.443h-.227L177.063 30Zm1.505-11.435h15.569l-.824 4.801h-15.568l.823-4.8ZM197.97 30 202.8.91h6.151l-3.978 24.019h12.472L216.593 30H197.97Z" fill="#F37324"/></svg>