<svg width="277" height="48" fill="none" xmlns="http://www.w3.org/2000/svg"><path d="M57.92 39V9.91h12.556c2.16 0 4.049.425 5.668 1.277 1.62.853 2.879 2.05 3.778 3.594.9 1.544 1.35 3.348 1.35 5.412 0 2.083-.464 3.887-1.392 5.412-.919 1.525-2.211 2.699-3.878 3.523-1.657.824-3.594 1.236-5.81 1.236h-7.5v-6.137h5.91c.927 0 1.718-.16 2.371-.483a3.53 3.53 0 0 0 1.52-1.406c.36-.606.54-1.321.54-2.145 0-.833-.18-1.543-.54-2.13-.35-.597-.857-1.052-1.52-1.364-.653-.322-1.444-.483-2.372-.483h-2.784V39H57.92Zm49.409-18.182h-8.012a5.436 5.436 0 0 0-.454-1.804 4.072 4.072 0 0 0-.995-1.392 4.146 4.146 0 0 0-1.52-.909c-.596-.218-1.273-.327-2.03-.327-1.326 0-2.449.322-3.367.966-.91.644-1.6 1.567-2.074 2.77-.464 1.203-.696 2.647-.696 4.332 0 1.78.237 3.272.71 4.475.483 1.193 1.18 2.093 2.088 2.699.91.596 2.003.895 3.281.895.73 0 1.383-.09 1.96-.27a4.6 4.6 0 0 0 1.506-.81c.427-.35.772-.772 1.037-1.264.275-.502.46-1.065.554-1.69l8.012.056c-.095 1.231-.441 2.486-1.037 3.765-.597 1.269-1.444 2.443-2.543 3.522-1.089 1.07-2.438 1.932-4.048 2.586-1.61.653-3.48.98-5.611.98-2.67 0-5.066-.573-7.188-1.719-2.111-1.146-3.783-2.832-5.014-5.057-1.221-2.225-1.832-4.948-1.832-8.168 0-3.238.625-5.965 1.875-8.181 1.25-2.226 2.936-3.906 5.057-5.043 2.12-1.146 4.488-1.719 7.102-1.719 1.837 0 3.528.251 5.071.753 1.544.502 2.898 1.236 4.063 2.202a10.88 10.88 0 0 1 2.812 3.537c.71 1.401 1.141 3.006 1.293 4.815Zm-.417-10.909h9.829l6.762 16.477h.341l6.761-16.477h9.829V39h-7.727V22.182h-.227l-6.477 16.59h-4.659l-6.478-16.704h-.227V39h-7.727V9.91Z" fill="#007F4E"/><path d="m138.213 39 4.829-29.09h11.477c2.197 0 4.001.42 5.412 1.263 1.421.834 2.415 1.994 2.983 3.48.578 1.478.711 3.182.398 5.114-.322 1.941-1.023 3.65-2.102 5.128-1.07 1.468-2.462 2.614-4.176 3.437-1.714.824-3.694 1.236-5.938 1.236h-7.315l.809-4.929h6.321c1.194 0 2.212-.203 3.054-.61.853-.417 1.53-.99 2.032-1.72.502-.738.828-1.585.98-2.542.161-.975.109-1.823-.156-2.543-.266-.72-.753-1.278-1.464-1.676-.7-.407-1.643-.61-2.826-.61h-4.148L144.363 39h-6.15Zm50.989-14.148c-.53 3.106-1.558 5.744-3.082 7.912-1.516 2.169-3.367 3.816-5.554 4.943-2.178 1.127-4.527 1.69-7.046 1.69-2.642 0-4.919-.6-6.832-1.803-1.904-1.203-3.282-2.94-4.134-5.213-.852-2.282-1.013-5.034-.483-8.253.512-3.116 1.53-5.758 3.054-7.926 1.525-2.178 3.386-3.836 5.583-4.972 2.197-1.146 4.559-1.719 7.088-1.719 2.623 0 4.886.606 6.789 1.819 1.913 1.212 3.291 2.964 4.134 5.255.852 2.282 1.013 5.038.483 8.267Zm-6.122-.724c.331-1.998.317-3.674-.043-5.029-.35-1.363-.994-2.395-1.932-3.096-.937-.7-2.121-1.051-3.551-1.051-1.553 0-2.978.388-4.275 1.164-1.288.777-2.377 1.904-3.267 3.381-.881 1.468-1.492 3.253-1.833 5.355-.341 2.008-.331 3.684.029 5.029.369 1.344 1.027 2.362 1.974 3.054.956.681 2.145 1.022 3.565 1.022 1.544 0 2.955-.378 4.233-1.136 1.288-.767 2.372-1.88 3.253-3.338.881-1.468 1.496-3.253 1.847-5.355ZM187.4 39l4.83-29.09h11.477c2.197 0 4.006.387 5.426 1.164 1.43.776 2.434 1.88 3.011 3.31.588 1.42.725 3.096.412 5.028-.322 1.932-1.018 3.589-2.088 4.972-1.06 1.382-2.443 2.447-4.147 3.195-1.696.74-3.661 1.108-5.895 1.108h-7.685l.852-4.943h6.676c1.175 0 2.178-.16 3.012-.483.833-.322 1.491-.805 1.974-1.448.493-.644.815-1.445.966-2.401.161-.975.104-1.79-.17-2.443-.275-.663-.772-1.165-1.492-1.506-.72-.35-1.666-.525-2.841-.525h-4.147L193.551 39H187.4Zm17.898-13.239L210.34 39h-6.789l-4.887-13.239h6.634Zm7.456-10.78.852-5.072h23.892l-.852 5.071h-8.906L223.762 39h-6.079l3.977-24.02h-8.906ZM234.063 39h-6.591l14.872-29.09h7.926L255.469 39h-6.591l-3.537-22.443h-.227L234.063 39Zm1.505-11.435h15.569l-.824 4.802h-15.568l.823-4.802ZM254.97 39l4.83-29.09h6.151l-3.978 24.019h12.472L273.593 39H254.97Z" fill="#F37324"/><path d="M44.177 24.492c.01-.33.01-.66 0-.99l3.421-4.275a1.836 1.836 0 0 0 .34-1.62 24.678 24.678 0 0 0-2.495-6.02 1.834 1.834 0 0 0-1.376-.9l-5.44-.606a18.156 18.156 0 0 0-.688-.688l-.642-5.453a1.835 1.835 0 0 0-.903-1.376 24.604 24.604 0 0 0-6.02-2.49 1.834 1.834 0 0 0-1.619.339l-4.263 3.403h-.99L19.226.402a1.835 1.835 0 0 0-1.62-.34 24.677 24.677 0 0 0-6.02 2.495 1.834 1.834 0 0 0-.9 1.376l-.606 5.449c-.238.228-.468.457-.688.688l-5.453.626a1.835 1.835 0 0 0-1.376.903 24.7 24.7 0 0 0-2.493 6.02 1.835 1.835 0 0 0 .342 1.62L3.816 23.5v.99L.402 28.768a1.834 1.834 0 0 0-.34 1.619 24.675 24.675 0 0 0 2.495 6.02 1.836 1.836 0 0 0 1.376.9l5.44.606c.227.238.457.468.688.688l.635 5.453a1.835 1.835 0 0 0 .903 1.376 24.702 24.702 0 0 0 6.02 2.493 1.835 1.835 0 0 0 1.62-.342l4.262-3.403c.33.01.66.01.99 0l4.276 3.421a1.835 1.835 0 0 0 1.619.34c2.108-.561 4.132-1.4 6.02-2.495a1.835 1.835 0 0 0 .9-1.376l.606-5.44c.238-.226.468-.455.688-.688l5.453-.642a1.835 1.835 0 0 0 1.376-.903 24.7 24.7 0 0 0 2.493-6.02 1.834 1.834 0 0 0-.342-1.619l-3.403-4.263Z" fill="#007F4E"/><path fill-rule="evenodd" clip-rule="evenodd" d="M33.952 12.978c-3.471.179-3.33.157-3.557.556-.263.46-.14.733.712 1.579l.633.628-4.513 4.514-4.514 4.513-2.113-2.103c-1.356-1.35-2.185-2.137-2.314-2.2-.275-.131-.932-.133-1.182-.002-.314.165-5.876 5.751-6.015 6.042-.423.886.311 2.052 1.339 2.126.604.043.565.073 3.042-2.404l2.21-2.21 2.114 2.105c2.253 2.246 2.283 2.27 2.804 2.308.666.048.234.431 6.033-5.361l5.216-5.21.7.685c.903.884 1.165.966 1.663.516.283-.255.305-.391.41-2.556.193-3.958.4-3.685-2.668-3.526Zm-2.05 8.938L29.98 23.84v5.27c0 5.803-.014 5.55.304 5.661.266.093 3.482.078 3.666-.017.262-.135.255.084.255-7.443v-7.049l-.142-.135c-.077-.075-.162-.135-.188-.135-.027 0-.914.866-1.972 1.924Zm-5.418 5.42c-1.052 1.052-1.985 1.963-2.075 2.024l-.163.112v5.087l.13.122.129.122 1.755.015c1.877.015 1.979.004 2.108-.239.035-.065.048-1.577.04-4.627l-.013-4.53-1.911 1.914Zm-8.022 3.386v3.79l.121.13c.176.19.193.192 2.078.176l1.721-.015.14-.14.14-.139.014-2.276.014-2.277-.409-.06c-.81-.118-1-.25-2.463-1.703-.707-.702-1.301-1.276-1.32-1.276-.02 0-.036 1.706-.036 3.79Zm-2.967-2.417c-1.555 1.54-1.662 1.614-2.679 1.82l-.138.028v2.116c0 2.853-.246 2.56 2.147 2.56 1.858 0 1.918-.01 2.022-.309.064-.183.082-7.538.018-7.536-.02 0-.638.595-1.37 1.321Z" fill="#fff"/></svg>