<svg width="300" height="200" fill="none" xmlns="http://www.w3.org/2000/svg"><path d="m266.78 60.108-3.828 18.54-2.464-2.404-4.192 2.992-3.204-3.98-7.184 5.224-6.14-10.268-6.848 4.012-2.716-3.744-8.696 4.9-2.616-5.604 6.096-29.524L257.668 47l9.112 13.108Z" fill="#EBEBEB"/><path d="m257.668 47 9.112 13.108-11.336-2.34L257.668 47Z" fill="#DBDBDB"/><path d="m262.136 82.352-5.612 27.2-44.02-9.088 5.572-26.98 2.616 5.6 8.7-4.9 2.712 3.744 6.852-4.008 6.136 10.268 7.188-5.224 3.2 3.976 4.196-2.988 2.46 2.4ZM199.132 79.164l-44.86 2.776-3.564-57.584 33.312-2.064 12.228 10.26 2.884 46.612Z" fill="#EBEBEB"/><path d="m184.02 22.292 12.228 10.26-11.552.716-.676-10.976ZM171.6 61.04l-.176-1.3c-.452-2.692.284-5.704 2.624-8.852 2.112-2.8 3.256-4.8 3.128-7.072-.144-2.56-1.844-4.176-5.008-4.048a8.924 8.924 0 0 0-4.98 1.84l-1.38-3.092c1.6-1.3 4.4-2.26 7.06-2.4 5.772-.32 8.58 3.096 8.8 6.908.192 3.412-1.576 5.976-3.824 8.972-2.064 2.732-2.74 4.984-2.448 7.532l.124 1.304-3.92.208Zm-.712 7.084c-.104-1.856 1.076-3.232 2.832-3.328 1.756-.096 3.036 1.136 3.14 2.996.096 1.756-.98 3.172-2.836 3.276-1.772.1-3.052-1.188-3.152-2.944h.016Z" fill="#DBDBDB"/><path d="M59.392 51.244 54.88 49.2l-.628 1.38a1.2 1.2 0 0 1-1.028.688 5.79 5.79 0 0 0-.74.072 1.2 1.2 0 0 1-1.14-.472l-.884-1.236-4.028 2.888.884 1.236a1.2 1.2 0 0 1 .08 1.228c-.114.22-.217.446-.308.676a1.2 1.2 0 0 1-.98.756l-1.508.148.484 4.932 1.516-.152a1.199 1.199 0 0 1 1.108.552c.064.104.132.204.204.304.072.1.144.196.22.292a1.176 1.176 0 0 1 .168 1.22l-.632 1.392 4.516 2.048.628-1.388a1.2 1.2 0 0 1 1.032-.684c.245-.01.49-.034.732-.072a1.2 1.2 0 0 1 1.14.472l.884 1.236 4.032-2.888-.884-1.236a1.164 1.164 0 0 1-.08-1.228c.111-.219.212-.443.3-.672a1.176 1.176 0 0 1 .98-.756l1.516-.152-.488-4.932L60.46 55a1.176 1.176 0 0 1-1.1-.548 8.135 8.135 0 0 0-.208-.304c-.072-.1-.144-.2-.22-.292a1.2 1.2 0 0 1-.168-1.228l.628-1.384Zm-2.56 4.564a4.061 4.061 0 1 1-6.603 4.73 4.061 4.061 0 0 1 6.603-4.73ZM263.352 116.684l-3.008 1.736.532.92a.803.803 0 0 1-.028.868c-.092.144-.18.292-.26.448a.807.807 0 0 1-.732.456H258.8v3.476h1.064a.798.798 0 0 1 .732.456c.08.156.168.304.26.448a.8.8 0 0 1 .028.868l-.532.92 3.008 1.736.536-.924a.826.826 0 0 1 .764-.4h.512a.82.82 0 0 1 .764.4l.536.928 3.004-1.736-.532-.924a.815.815 0 0 1 .032-.864c.092-.144.18-.296.26-.448a.807.807 0 0 1 .732-.456h1.064v-3.476h-1.072a.798.798 0 0 1-.732-.456 6.216 6.216 0 0 0-.26-.448.827.827 0 0 1-.032-.864l.532-.924-3.004-1.736-.536.912a.826.826 0 0 1-.764.4h-.512a.839.839 0 0 1-.768-.4l-.532-.916Zm1.556 3.32a2.851 2.851 0 0 1 2.634 1.756 2.849 2.849 0 1 1-5.263-.002 2.848 2.848 0 0 1 2.629-1.758v.004ZM68.52 36.464l-2.756 2.112.636.844a.8.8 0 0 1 .084.86 4.202 4.202 0 0 0-.2.48.82.82 0 0 1-.668.548l-1.056.136.448 3.444 1.056-.136a.824.824 0 0 1 .8.36c.096.14.2.273.312.4a.8.8 0 0 1 .144.852l-.4.984 3.2 1.332.4-.984a.82.82 0 0 1 .708-.5l.256-.028.252-.04a.824.824 0 0 1 .8.3l.652.852 2.756-2.112-.644-.844a.824.824 0 0 1-.084-.864c.076-.155.143-.314.2-.476a.82.82 0 0 1 .668-.548l1.056-.136-.448-3.444-1.056.136a.825.825 0 0 1-.8-.356c-.1-.144-.204-.28-.316-.4a.828.828 0 0 1-.12-.836l.4-.984-3.2-1.332-.4.984a.828.828 0 0 1-.708.5l-.256.024L70 37.6a.824.824 0 0 1-.8-.3l-.68-.836Zm1.972 3.092a2.845 2.845 0 1 1 .725 5.643 2.845 2.845 0 0 1-.725-5.643ZM47.928 126.712c.15-3.867.097-7.739-.16-11.6a148.316 148.316 0 0 0-3.636-23.664c-1.016-4.376-2.264-8.68-3.568-12.98-.04-.132-.248-.096-.212.04 4.028 15.16 7.332 30.8 7.104 46.56-.064 4.4-.576 8.74-.992 13.124 0 .116.18.164.208.044.828-3.764 1.1-7.692 1.256-11.524Z" fill="#EBEBEB"/><path d="M40.352 78.496S34.256 93.976 35.62 97.6c1.364 3.624 4.18 4.4 4.18 4.4s-3.732 5.328-1.124 10.324c2.608 4.996 8.4 4.76 8.8 10.424-.012.028.308-23.656-7.124-44.252Z" fill="#EBEBEB"/><path d="M46.8 112.996a.113.113 0 0 0 0-.08 141.732 141.732 0 0 0-5.912-31.14c0-.028-.06-.02-.052 0a231.213 231.213 0 0 1 3.2 13.656 6.748 6.748 0 0 0-2.912-1.624s-.032.024 0 .032a7.74 7.74 0 0 1 3.008 2c.176.9.352 1.796.516 2.696-1.364-1.524-3.252-2.28-5.144-3a.023.023 0 0 0-.01.009.024.024 0 0 0 .01.035c1.972.8 3.932 1.832 5.268 3.532a179.85 179.85 0 0 1 1.224 7.732 7.368 7.368 0 0 0-3.636-2.084c-.044 0-.068.052-.024.064A7.662 7.662 0 0 1 46 107.2h.024c.12.907.235 1.817.344 2.732a9.35 9.35 0 0 0-2.548-1.536c-.024 0-.04.028 0 .036.945.409 1.81.982 2.556 1.692h.032c.1.868.2 1.736.288 2.604a12.408 12.408 0 0 0-5.172-3.696.032.032 0 0 0-.023.009.034.034 0 0 0-.009.023c0 .008.003.017.01.023a.032.032 0 0 0 .022.009 13.471 13.471 0 0 1 5.096 3.924.12.12 0 0 0 .128.04c.132 1.332.252 2.664.348 4 0 .02.032.02.032 0a660.16 660.16 0 0 0-.328-4.064Z" fill="#fff"/><path d="M41.9 92.284a7.636 7.636 0 0 0-3.664-1.144.024.024 0 1 0 0 .048c1.256.238 2.474.642 3.624 1.2.048.012.084-.072.04-.104ZM42.64 108.672a7.626 7.626 0 0 0-2.752-.94c-.032 0-.036.044 0 .052.946.19 1.862.51 2.72.952.036.02.068-.044.032-.064Z" fill="#fff"/><path d="M63.96 97.868a41.487 41.487 0 0 0-7.06 6.168 25.268 25.268 0 0 0-4.948 8.4 62.767 62.767 0 0 0-3.688 20.08 48.93 48.93 0 0 0 1.084 11.292c.007.027.023.05.046.065.024.016.052.021.079.016a.11.11 0 0 0 .068-.043.11.11 0 0 0 .019-.078 63.44 63.44 0 0 1 .112-19.74c1.048-6.4 2.692-13.368 6.764-18.572 2.216-2.836 4.98-5.064 7.712-7.368.144-.128-.04-.324-.188-.22Z" fill="#EBEBEB"/><path d="M49.16 127.9a37.993 37.993 0 0 1 5.144-6.576c3.052-3.052 5.62-5.22 6.02-7.236.4-2.016-3.056-3.504-3.056-3.504s4.22.76 5.376-1.012c1.156-1.772 1.712-12.036 1.712-12.036s-7.68 5.484-11.26 13.172c-3.58 7.688-3.936 17.192-3.936 17.192Z" fill="#EBEBEB"/><path d="M61.6 107.164a6.735 6.735 0 0 0-1.528-.052c-.06 0-.056.104 0 .108.504 0 1.012-.024 1.516 0a.031.031 0 0 0 .015-.009.03.03 0 0 0 .008-.015.035.035 0 0 0 0-.018.037.037 0 0 0-.011-.014ZM56.084 117.12a6.884 6.884 0 0 0-2.368.472v.036c.8-.188 1.572-.264 2.364-.4a.066.066 0 0 0 .026-.021.06.06 0 0 0 .002-.064.056.056 0 0 0-.024-.023ZM54.428 113.68a5.282 5.282 0 0 0-1.004.088.028.028 0 0 0-.015.012.029.029 0 0 0-.006.018c0 .007.002.013.006.018.004.006.009.01.015.012.335.019.672.005 1.004-.044a.05.05 0 0 0 .037-.015.053.053 0 0 0 0-.074.05.05 0 0 0-.037-.015Z" fill="#fff"/><path d="M26.644 108.756a34.84 34.84 0 0 1 7.14 3.364 21.324 21.324 0 0 1 5.948 5.648 52.882 52.882 0 0 1 7.624 15.396 41.016 41.016 0 0 1 1.728 9.392.09.09 0 0 1-.032.052.088.088 0 0 1-.058.021.088.088 0 0 1-.058-.021.09.09 0 0 1-.032-.052 53.286 53.286 0 0 0-4.648-15.948c-2.332-4.94-5.272-10.196-9.768-13.468-2.448-1.78-5.2-2.948-7.944-4.18-.144-.048-.044-.252.1-.204Z" fill="#EBEBEB"/><path d="M45.564 129.64a32.106 32.106 0 0 0-5.684-4.132c-3.176-1.764-5.756-2.924-6.544-4.464-.788-1.54 1.664-3.54 1.664-3.54s-3.24 1.6-4.584.42c-1.344-1.18-4.168-9.34-4.168-9.34s7.484 2.66 12.152 8.056c4.668 5.396 7.164 13 7.164 13Z" fill="#EBEBEB"/><path d="M39.352 122.128a5.752 5.752 0 0 0-2.176.268v.032a16.197 16.197 0 0 1 2.164-.224c.052 0 .064-.072.012-.076ZM32.824 113.568a3.675 3.675 0 0 0-1.004.056c-.036 0-.024.064 0 .06.332-.036.656-.024.984-.032a.044.044 0 0 0 .02-.084Z" fill="#fff"/><path d="M55.216 152.872H38.324l2.408-17.644.616-4.524h10.844l.616 4.524 2.408 17.644Z" fill="#DBDBDB"/><path d="M52.808 135.228H40.732l.616-4.524h10.844l.616 4.524Z" fill="#C7C7C7"/><path d="M53.74 129.136H39.796v3.832H53.74v-3.832Z" fill="#DBDBDB"/><path d="m27.584 152.872 30.404-.096 30.404-.036 60.808-.068 60.808.068 30.404.036 30.404.096-30.404.1-30.404.032-60.808.068-60.808-.068-30.404-.036-30.404-.096Z" fill="#263238"/><path d="M150 182.684c63.345 0 114.696-5.627 114.696-12.568S213.345 157.548 150 157.548s-114.696 5.627-114.696 12.568S86.655 182.684 150 182.684Z" fill="#EBEBEB"/><path d="M123.3 168.036c-.932.316-27.656.4-28.68-.232-.4-.24-.628-4.132-.8-8.844a245.215 245.215 0 0 1-.088-3.132L91.6 141.572l17.868-.116 1.684 14.26-.068 3.136s10.248 4.54 11.296 5.364c1.048.824 1.852 3.504.92 3.82Z" fill="#D7D7D7"/><path d="M123.3 168.036c-.932.316-27.656.4-28.68-.232-.472-.296-.728-5.98-.872-11.976l17.384-.112-.068 3.136s10.248 4.54 11.296 5.364c1.048.824 1.872 3.504.94 3.82Z" fill="#fff"/><path d="M123.3 168.036c-.932.316-27.656.4-28.68-.232-.4-.24-.628-4.132-.8-8.844l17.228-.108s10.248 4.54 11.296 5.364c1.048.824 1.888 3.504.956 3.82Z" fill="#A6A6A6"/><path d="M122.912 166.968c-4.48-.096-22.56-.052-26.996.196-.036 0-.036.024 0 .028 4.44.188 22.52 0 26.996-.152.096-.004.096-.072 0-.072ZM120.636 163.26a3.606 3.606 0 0 0-2.676 1.104 3.466 3.466 0 0 0-.992 2.4c0 .028.048.028.052 0a4.159 4.159 0 0 1 3.625-3.444.032.032 0 0 0 .011-.045.034.034 0 0 0-.02-.015ZM112.8 159.292c-1.792-.02-3.868.62-4.98 2.092-.04.056.04.116.092.088a24.958 24.958 0 0 1 4.92-1.96.112.112 0 0 0 .081-.124.114.114 0 0 0-.038-.07.114.114 0 0 0-.075-.026ZM114.192 159.824c-1.796 0-3.872.624-4.98 2.092-.044.06.036.12.092.092a24.646 24.646 0 0 1 4.916-1.964.11.11 0 0 0 .081-.122.111.111 0 0 0-.109-.098ZM115.576 160.36c-1.792 0-3.868.62-4.98 2.092-.04.056.04.116.092.088a24.958 24.958 0 0 1 4.92-1.96.112.112 0 0 0 .081-.124.114.114 0 0 0-.038-.07.114.114 0 0 0-.075-.026ZM116.964 160.896c-1.796-.02-3.872.62-4.98 2.092-.044.056.04.116.092.088a24.812 24.812 0 0 1 4.92-1.96.112.112 0 0 0 .081-.124.114.114 0 0 0-.038-.07.114.114 0 0 0-.075-.026ZM97.044 162.904c-2 0-2 3.14 0 3.128 2-.012 2.016-3.14 0-3.128Z" fill="#263238"/><path d="M114.724 154.5c-.908-.752-2.052 0-2.608.772a9.432 9.432 0 0 0-1.6 4.592c0 .036.028.052.056.052a.218.218 0 0 0 .227.171.213.213 0 0 0 .097-.031c1.272-.884 2.744-1.676 3.708-2.928.548-.728.996-1.928.12-2.628Zm-2.184 3.816c-.616.452-1.252.872-1.852 1.348.32-.896.596-1.8 1.004-2.664.188-.414.405-.815.648-1.2.4-.596 2.144-2.1 2.328-.152.104 1.068-1.396 2.132-2.128 2.668Z" fill="#263238"/><path d="M106.052 160.544c1.56.232 3.172-.216 4.704-.46a.225.225 0 0 0 .149-.131.219.219 0 0 0-.017-.197.04.04 0 0 0 .014-.017.05.05 0 0 0 .005-.021.05.05 0 0 0-.005-.021.046.046 0 0 0-.014-.017 9.402 9.402 0 0 0-4.344-2.188c-.944-.18-2.28.08-2.4 1.252-.144 1.104.996 1.656 1.908 1.8Zm-1.088-1.016c-1.2-1.536 1.092-1.668 1.78-1.508.446.112.885.253 1.312.424.875.363 1.731.77 2.564 1.22-.76.076-1.508.212-2.264.316-.904.12-2.72.392-3.392-.452Z" fill="#263238"/><path d="M65.328 75.68s20.748 35.296 21.304 37.776c.852 3.808 5.368 41.412 5.368 41.412l21.6-.4s-3.72-33.156-7.244-44.08c-2.536-7.868-20.848-33.964-20.848-33.964l-20.18-.744Z" fill="#37474F"/><path d="M111.636 151.172c-3.1-.024-14.088-.148-18.216.236-.032 0-.028.056 0 .06 1.42.204 15.112-.112 18.212-.212a.044.044 0 0 0 .02.002.04.04 0 0 0 .019-.007.04.04 0 0 0 .014-.015.033.033 0 0 0 .006-.019.045.045 0 0 0-.004-.02.04.04 0 0 0-.012-.016.037.037 0 0 0-.019-.009.034.034 0 0 0-.02 0ZM68.868 78.92c1.36 2.132 2.8 4.22 4.184 6.336 1.384 2.116 2.776 4.232 4.148 6.344a519.685 519.685 0 0 1 8 12.884 39.48 39.48 0 0 1 3.24 6.316 38.7 38.7 0 0 1 1.82 6.776c.424 2.316.704 4.656.964 6.996.267 2.488.545 4.977.836 7.468.568 5.096 1.137 10.192 1.708 15.288.068.624.136 1.248.2 1.876 0 .092-.156.108-.168 0-.636-5.06-1.164-10.14-1.74-15.2-.288-2.525-.575-5.049-.86-7.572-.268-2.348-.524-4.7-.888-7.032a45.988 45.988 0 0 0-1.52-6.8 32.668 32.668 0 0 0-2.984-6.6c-2.5-4.316-5.148-8.556-7.796-12.8-2.648-4.244-5.368-8.524-8.16-12.716a65.419 65.419 0 0 0-1.052-1.54c-.028-.028.044-.064.068-.024Z" fill="#263238"/><path d="M72.128 170.116c-.984-.06-26.4-10.356-27.104-11.332a.335.335 0 0 1-.04-.188c0-.876 1.764-3.932 3.236-7.948.092-.256.748-1.448 1.656-3.052C52.4 143.2 56.8 135.628 56.8 135.628l16.612 6.6-7.952 11.9-1.236 2.88s7.796 8.06 8.452 9.2c.656 1.14.432 3.964-.548 3.908Z" fill="#D7D7D7"/><path d="M72.128 170.116c-.984-.06-26.4-10.356-27.104-11.332a.335.335 0 0 1-.04-.188c0-.876 1.764-3.932 3.236-7.948.092-.256.748-1.448 1.656-3.052l15.6 6.532-1.236 2.88s7.796 8.06 8.452 9.2c.656 1.14.416 3.964-.564 3.908Z" fill="#fff"/><path d="M72.128 170.116c-.984-.06-26.4-10.356-27.104-11.332-.272-.372.864-3.84 3.2-8.136l16 6.364s7.796 8.052 8.456 9.2c.66 1.148.428 3.96-.552 3.904Z" fill="#A6A6A6"/><path d="M72.168 168.98c-4.116-1.768-20.892-8.512-25.096-9.944-.036 0-.044 0 0 .024 4.044 1.84 20.872 8.448 25.08 10 .08.02.104-.044.016-.08ZM71.448 164.688a3.592 3.592 0 0 0-2.896 0 3.478 3.478 0 0 0-1.816 1.848c0 .024.036.044.048.02a4.163 4.163 0 0 1 4.644-1.836.028.028 0 0 0 .02-.032ZM65.676 158.072c-1.652-.692-3.82-.876-5.4.072-.06.036 0 .12.052.116a24.936 24.936 0 0 1 5.296.028.11.11 0 0 0 .077-.02.11.11 0 0 0 .044-.065.114.114 0 0 0-.01-.079.113.113 0 0 0-.059-.052ZM66.76 159.088c-1.652-.692-3.82-.876-5.4.072-.06.036 0 .12.052.116a24.675 24.675 0 0 1 5.296.028.11.11 0 0 0 .077-.02.11.11 0 0 0 .044-.065.114.114 0 0 0-.01-.079.113.113 0 0 0-.059-.052ZM67.848 160.104c-1.656-.692-3.824-.876-5.4.072-.064.036 0 .12.048.116a24.675 24.675 0 0 1 5.296.028.111.111 0 0 0 .127-.082.113.113 0 0 0-.01-.081.11.11 0 0 0-.061-.053ZM68.932 161.12c-1.656-.692-3.82-.876-5.4.068-.064.04 0 .124.048.12a24.675 24.675 0 0 1 5.296.028.111.111 0 0 0 .117-.163.11.11 0 0 0-.061-.053ZM49.712 155.508c-1.868-.744-3.028 2.164-1.152 2.908 1.876.744 3.04-2.164 1.152-2.908Z" fill="#263238"/><path d="M69.256 154.352c-.564-1.036-1.896-.78-2.708-.264a9.407 9.407 0 0 0-3.2 3.652.048.048 0 0 0 .013.059.063.063 0 0 0 .019.009c0 .132.088.288.244.256 1.516-.348 3.176-.528 4.536-1.328.78-.464 1.628-1.404 1.096-2.384Zm-3.46 2.716c-.74.188-1.484.34-2.216.556a28.013 28.013 0 0 1 1.924-2.092c.333-.317.687-.611 1.06-.88.58-.4 2.772-1.14 2.212.736-.308 1.036-2.096 1.456-2.98 1.68Z" fill="#263238"/><path d="M58.948 156.7c1.36.8 3.02.988 4.532 1.34.156.036.26-.12.248-.256a.05.05 0 0 0 .02-.008.044.044 0 0 0 .011-.06 9.413 9.413 0 0 0-3.199-3.66c-.8-.52-2.14-.78-2.708.252-.568 1.032.3 1.924 1.096 2.392Zm-.624-1.352c-.556-1.876 1.632-1.132 2.212-.728.372.269.725.565 1.056.884a27.996 27.996 0 0 1 1.92 2.096c-.732-.216-1.476-.372-2.216-.56-.896-.24-2.668-.64-2.972-1.692Z" fill="#263238"/><path d="m66.752 153.464-18.596-7.508s23.056-33.9 23.224-36.424c.152-2.232-9.976-21.68-10.372-27.348-.432-6.12 2.512-10.852 5.752-13.792l19.18 8.156s-2.024 3.236-5.2 5.04c0 0 9.836 22.48 9.276 29.392-.56 6.912-23.264 42.484-23.264 42.484Z" fill="#37474F"/><path d="M67.576 149.928c-2.688-1.156-1.9-.864-4.604-2-1.32-.552-10-4.164-11.336-4.464-.028 0-.048.04-.02.056 1.156.708 9.908 4.168 11.24 4.696 2.724 1.072 1.952.736 4.688 1.776.004.005.01.01.016.013a.065.065 0 0 0 .02.003.041.041 0 0 0 .032-.022.04.04 0 0 0-.036-.058ZM83.884 81.176c-1.997.465-3.95 1.1-5.84 1.896a.06.06 0 0 0-.035.031.062.062 0 0 0-.003.047.062.062 0 0 0 .031.035.062.062 0 0 0 .047.003c1.96-.572 3.952-1.108 5.88-1.784.148-.052.072-.26-.08-.228Z" fill="#263238"/><path d="M81.6 80.4c-.186.331-.35.675-.492 1.028-.138.268-.224.56-.252.86 0 .06.08.072.116.036.2-.24.363-.51.48-.8.164-.316.332-.628.488-.952.108-.236-.216-.388-.34-.172Z" fill="#263238"/><path d="M81.84 78.584c.12-.296.236-.588.36-.884.124-.296.28-.6.4-.912 0-.048.096 0 .076.036-.12.296-.196.608-.288.912-.092.304-.196.608-.296.912-.188.564-.4 1.124-.66 1.672.315.016.629-.039.92-.16.297-.19.526-.47.652-.8.168-.328.324-.664.496-.992a6.63 6.63 0 0 0 .532-1.116c0-.048.096 0 .076.036-.26.82-.603 1.612-1.02 2.364-.18.292-.32.6-.648.712-.355.1-.727.125-1.092.076-.048 0-.104 0-.088-.072.164-.604.357-1.2.58-1.784ZM81.024 82.32c.684 1.444 1.284 2.884 1.92 4.324.636 1.44 1.2 2.832 1.772 4.264a112.814 112.814 0 0 1 3.068 8.8 89.24 89.24 0 0 1 1.224 4.452c.405 1.491.702 3.01.888 4.544.16 1.532.025 3.08-.4 4.56a26.682 26.682 0 0 1-1.692 4.252c-.42.864-.56.748-.36.312.572-1.24 2.072-4.996 1.964-8.152a23.527 23.527 0 0 0-.696-4.476 79.195 79.195 0 0 0-1.18-4.5c-.852-2.936-1.864-5.812-2.904-8.684-.584-1.6-1.2-3.2-1.8-4.8-.6-1.6-1.2-3.072-1.872-4.84-.02-.072.048-.1.068-.056ZM66.908 77.548c.332-.124.8.08 1.136.136.435.074.875.118 1.316.132.436.015.874 0 1.308-.044a2.8 2.8 0 0 0 1.252-.332 6.373 6.373 0 0 0 1.6-1.692 9.846 9.846 0 0 0 1.244-2.184c0-.048.084 0 .068.032-.14.444-.244.892-.4 1.328a8.07 8.07 0 0 1-.616 1.18 5.044 5.044 0 0 1-1.656 1.88c-.772.44-1.764.4-2.624.364-.499-.03-.995-.095-1.484-.196-.352-.076-.944-.132-1.168-.44a.107.107 0 0 1 .024-.164Z" fill="#263238"/><path d="M53.464 142.4a685.15 685.15 0 0 0 9-14 875.983 875.983 0 0 0 8.712-14.22c.684-1.14 1.472-2.276 1.912-3.54.48-1.372.208-2.704-.224-4.048a68.586 68.586 0 0 0-2.856-7.2c-1.072-2.364-2.228-4.688-3.364-7.02-1.136-2.332-2.324-4.636-3.2-7.068-.8-2.324-1.124-4.732-.5-7.14.624-2.408 1.968-4.536 3.372-6.54.368-.528.748-1.052 1.12-1.6.028-.04.088 0 .06.048-1.548 2.088-3.056 4.3-3.964 6.752a11.66 11.66 0 0 0-.768 3.78c-.008 1.313.196 2.62.604 3.868.752 2.432 1.94 4.732 3.048 7.02 1.108 2.288 2.292 4.656 3.384 7.012a75.046 75.046 0 0 1 3 7.276c.372 1.1.8 2.252.768 3.432-.028 1.292-.644 2.456-1.284 3.544-2.8 4.74-5.668 9.424-8.588 14.08a720.186 720.186 0 0 1-8.964 13.92l-1.152 1.74c-.06.072-.164-.012-.116-.096Z" fill="#263238"/><path d="M87.004 54.988c1.732 3.8 10.48 9.036 14.576 9.6 2.944.4 11.896.544 14.964.076 3.6-.552.848-10.252-1.276-10-5.84.68-10.8 1.44-12.36 1.44-1.904 0-12.204-3.304-13.444-3.772-3.04-1.132-3.44.5-2.46 2.656Z" fill="#D7D7D7"/><path d="M87.06 56c2.192 3.244 9.476 8.548 9.476 8.548l1.012-2.24 3.348-7.408s-6.692-2.1-11.096-3.06a9.651 9.651 0 0 0-1.576-.224C85.412 51.464 85.168 53.2 87.06 56Z" fill="#48AF7A"/><path d="M87.06 56c2.192 3.244 9.476 8.548 9.476 8.548l1.012-2.24c-2.716-3.156-6.912-7.936-9.324-10.684-2.812-.16-3.056 1.576-1.164 4.376Z" fill="#263238"/><path d="M95.224 63.044c.556-1.364 3.028-6.856 3.644-8 .04-.08.104-.072.068 0a80.685 80.685 0 0 1-3.656 8c-.016.048-.08.032-.056 0Z" fill="#263238"/><path d="M114.196 54.764c3.552-.464 7.948-1.26 11.672.32.418.164.769.464.996.852 1.68.68 1.864 1.676 1.864 1.676 1.372 1.112 1.42 2.16 1.42 2.16s1.968.8 1.668 2.088c-.328 1.424-3.024 0-4.984.116-4.5.28-10.8 1.932-12.1 2.14l-.536-9.352Z" fill="#D7D7D7"/><path d="M121.912 58.956c1.316-.09 2.636-.09 3.952 0 1.433.18 2.85.467 4.24.86a.037.037 0 0 0 .028-.002.037.037 0 0 0 .018-.02.038.038 0 0 0-.001-.028.04.04 0 0 0-.021-.018 15.317 15.317 0 0 0-8.216-.832c-.064-.008-.064.044 0 .04ZM121.076 54.8c2.196.112 3.568.464 5.776 1.128v-.024c-2.432-1.016-3.428-1.112-5.788-1.2-.076.032-.072.096.012.096Z" fill="#263238"/><path d="M121.432 62.656c-.572.268-.432.568.66.82s5.632.328 5.472 1.912c-.16 1.584-6.564 1.384-8.352.824-1.788-.56-4.48-2.096-4.48-2.096 1.268-.212 4.244-1.016 6.7-1.46Z" fill="#D7D7D7"/><path d="M91.76 61.044c-.028.684-.092 1.38-.188 2.072 0-.028 0-.052.028-.076.132-.36.264-.728.424-1.076h.036a5.774 5.774 0 0 1-.344 1.112c-.072.172-.14.34-.216.508-.048.308-.104.612-.164.916-.12.572-.66 3.004-.8 3.416-.024.084-.128.064-.12-.032.028-.448.48-2.98.572-3.556.179-1.112.418-2.214.716-3.3.02-.02.06-.004.056.016Z" fill="#263238"/><path d="M87.6 79.232c-1.068.548-2.444 1.4-8.644.18-.4-.08-.776-.176-1.168-.292-5.812-1.744-12.8-8.58-13.18-9.064 0 0 9.236-14.972 21.048-19.68 1.46-.58 3.876.54 5.2 1.936.476.5 1.512 4.176 1.116 7.152-.396 2.976-3.308 19.22-4.372 19.768Z" fill="#48AF7A"/><path d="M86.768 59.328a4.536 4.536 0 0 1-.26 1.864 4.34 4.34 0 0 1 .26-1.864ZM82.74 69.524a4.13 4.13 0 0 1-.032.944 3.916 3.916 0 0 1-.228.92 3.943 3.943 0 0 1 .032-.948c.04-.313.117-.62.228-.916ZM75.896 61.816a4.54 4.54 0 0 1-.26 1.868 4.372 4.372 0 0 1 .26-1.868ZM89.404 69.004c.026.316.015.634-.032.948a3.916 3.916 0 0 1-.228.92 3.943 3.943 0 0 1 .032-.948c.04-.314.117-.623.228-.92ZM80.616 60.496a4.13 4.13 0 0 1 .944.028c.315.04.624.118.92.232a4.508 4.508 0 0 1-1.864-.26ZM72.848 67.86a4.536 4.536 0 0 1 1.864.26 4.34 4.34 0 0 1-1.864-.26ZM82 75.832a4.51 4.51 0 0 1 1.864.26 4.365 4.365 0 0 1-1.864-.26ZM70.452 72.936a4.536 4.536 0 0 1 1.864.26 4.365 4.365 0 0 1-1.864-.26ZM86.708 52.16a4.536 4.536 0 0 1 1.864.26 4.536 4.536 0 0 1-1.864-.26ZM84.448 54.712c-.202.243-.433.46-.688.648a4.245 4.245 0 0 1-.8.488c.2-.242.43-.459.68-.648.25-.192.521-.356.808-.488ZM72.132 61.964a4.042 4.042 0 0 1-.692.644c-.245.195-.514.36-.8.488.206-.24.438-.456.692-.644.246-.194.515-.358.8-.488ZM87.512 65.236c-.205.242-.437.46-.692.648a3.869 3.869 0 0 1-.8.488 4.07 4.07 0 0 1 .692-.648c.247-.193.516-.356.8-.488ZM77.552 71.508a4.07 4.07 0 0 1-.692.648 3.943 3.943 0 0 1-.8.488 4.07 4.07 0 0 1 .692-.648c.247-.192.516-.356.8-.488ZM91.328 56.668a4.07 4.07 0 0 1-.692.648 4.251 4.251 0 0 1-.8.488 4.07 4.07 0 0 1 .692-.648c.246-.194.515-.358.8-.488ZM91.12 63.936a4.07 4.07 0 0 1-.648-.692 3.842 3.842 0 0 1-.488-.8c.243.202.46.433.648.688.191.25.355.52.488.804ZM68.92 68.944a4.07 4.07 0 0 1-.648-.692 4.131 4.131 0 0 1-.488-.8c.242.205.46.437.648.692.194.246.358.515.488.8ZM88.42 74.9a3.897 3.897 0 0 1-.648-.688 4.251 4.251 0 0 1-.488-.8c.242.205.46.437.648.692.193.246.357.513.488.796ZM78.648 57.92a4.046 4.046 0 0 1-.648-.688 4.378 4.378 0 0 1-.488-.8 3.9 3.9 0 0 1 .648.688c.19.248.355.517.488.8ZM78.82 78.292a4.07 4.07 0 0 1-.648-.692 4.218 4.218 0 0 1-.488-.8c.243.202.46.433.648.688.193.249.356.518.488.804ZM80.48 66.276a4.215 4.215 0 0 1-.644-.692 3.771 3.771 0 0 1-.488-.8c.241.205.457.437.644.692.194.246.358.515.488.8Z" fill="#fff"/><path d="M88.692 56.3c-1.508-.28-2.924-3.396-3.104-5.492 0-.144.704-1.284 1.508-2.712a34.104 34.104 0 0 0 1.416-2.776c.084-.188.576.448.576.448l1.072.8 3.54 2.716a16.136 16.136 0 0 0-2.132 3.308c-.057.129-.1.263-.128.4a.482.482 0 0 0 0 .068c-.22.792-1.296 3.508-2.748 3.24Z" fill="#D7D7D7"/><path d="M91.44 53.012a.482.482 0 0 0 0 .068 3.963 3.963 0 0 1-.612-.236c-3.876-1.816-2.168-7.008-2.168-7.008l1.52.752 3.54 2.716a16.136 16.136 0 0 0-2.132 3.308 1.996 1.996 0 0 0-.148.4ZM97.768 38.232s1.772 1.124 1.78 3.124c.008 2-.8 3.956-.968 4.028-.168.072-.812-7.152-.812-7.152Z" fill="#263238"/><path d="M88.976 39.272c-1.064 2.1-1.008 8.72.32 10.424 1.928 2.472 5.64 3.324 7.884.88 2.172-2.368 1.948-10.992.4-12.6-2.252-2.376-7.028-1.812-8.604 1.296Z" fill="#D7D7D7"/><path d="M94.624 44.572s-.036.024-.032.04c.024.452-.024.972-.428 1.132v.024c.5-.08.556-.772.46-1.196Z" fill="#263238"/><path d="M94.212 44.112c-.728-.04-.752 1.416-.076 1.452.676.036.684-1.42.076-1.452ZM97.092 44.556s.036 0 .036.04c-.024.452.028.972.436 1.128v.024c-.504-.076-.564-.768-.472-1.192Z" fill="#263238"/><path d="M97.504 44.092c.724-.044.76 1.412.088 1.452-.672.04-.696-1.416-.088-1.452ZM93.756 43.004c.191-.054.38-.118.564-.192a.96.96 0 0 0 .544-.304.308.308 0 0 0-.044-.372.764.764 0 0 0-.768-.092c-.27.072-.504.242-.656.476a.332.332 0 0 0 .36.484ZM98 43.648a5.856 5.856 0 0 1-.576-.16.96.96 0 0 1-.556-.276.3.3 0 0 1 .024-.372.756.756 0 0 1 .76-.132c.274.057.516.214.68.44a.328.328 0 0 1-.332.5ZM93.6 48.848c.108.108.212.252.376.268a1.2 1.2 0 0 0 .488-.104s.028 0 0 .024a.605.605 0 0 1-.576.236.484.484 0 0 1-.352-.4.034.034 0 0 1 0-.026.034.034 0 0 1 .046-.017c.008.004.015.01.018.019ZM96.216 46.92s.02.672 0 .988a6.592 6.592 0 0 0-1.844.064c-.144.032-.128-.084.036-.16a2.704 2.704 0 0 1 1.568-.208c.032-.084-.052-1.04 0-1.036.242.047.476.128.696.24 0-1.408-.224-2.8-.204-4.208 0-.048.076-.056.084 0a22.65 22.65 0 0 1 .4 4.52c.004.172-.616-.136-.736-.2Z" fill="#263238"/><path d="M95.316 47.668a2 2 0 0 1-.84 1.004c-.604.244-.8-.304-.192-.8a1.952 1.952 0 0 1 1.032-.204ZM88.672 44.932c.732.224 1.572-1.976 1.812-2.8.208-.744.448-3.108.484-3.272.036-.164 3.2 2.092 5.032 1.556 1.832-.536 3.076-2.196 3.104-2.968.028-.772-2.264-2.732-4.244-2.832-1.98-.1-4.664 2.4-4.664 2.4.324-.368.618-.761.88-1.176-.032-.088-1.312.424-1.548 1.336 0 0 .256-1.148.16-1.168-.096-.02-1.092.96-.868 1.704 0 0-1.152.996-1.256 2.088-.104 1.092.248 4.868 1.108 5.132Z" fill="#263238"/><path d="M97.312 40a6.085 6.085 0 0 1-1.74.624c-.683.06-1.37-.05-2-.32a6.142 6.142 0 0 1-1.744-1.032c-.46-.376-.872-.836-1.364-1.172-.124-.088-.264.092-.188.204a6.608 6.608 0 0 0 3.344 2.464 3.812 3.812 0 0 0 3.688-.752s.012-.016.004-.016Z" fill="#263238"/><path d="M89.436 44.736s-1.136-2.304-2.16-1.932c-1.024.372-.4 3.56.652 4.144a1.139 1.139 0 0 0 1.6-.376l-.092-1.836Z" fill="#D7D7D7"/><path d="M87.48 43.712s-.024 0 0 .032c.728.432 1.024 1.2 1.2 2a.628.628 0 0 0-.904-.312c-.024 0 0 .044 0 .044a.7.7 0 0 1 .724.36c.115.214.206.439.272.672.024.076.156.056.144-.028.172-.996-.388-2.504-1.436-2.768Z" fill="#263238"/><path d="M81.936 55.024c-.8 4.532 4.112 19.8 7.26 22.652 4.684 4.24 13.344 7.028 16.484 7.936 1.368.4 5.152-9.228 3.768-9.864C106.484 74.4 97.276 71.52 96.4 70.8c-.876-.72-6.156-8.348-8.508-12.74-3.148-5.912-5.56-5.328-5.956-3.036Z" fill="#D7D7D7"/><path d="M107.116 74.9s4.088 1.044 6.724 1.848c1.472.452 3.928 1.448 4.86 2.272 1.392 1.236 6.424 7.284 4.984 8.536-1.304 1.136-4.968-4.612-4.968-4.612s4.208 5.472 2.4 6.548c-1.808 1.076-5.116-5.968-5.116-5.968s4.196 5.72 2.144 6.532c-1.552.612-4.88-5.6-4.88-5.6s3.576 4.94 2 5.64c-1.736.776-5.164-4.768-5.164-4.768-4.288 1.108-6.8-.12-8.452-1.2-.388-.264 5.468-9.228 5.468-9.228Z" fill="#D7D7D7"/><path d="M117.38 80.956c.52.624 1.048 1.256 1.508 1.924.46.668.896 1.356 1.292 2.064.537.916.966 1.89 1.28 2.904-.688-1.76-2.3-4.18-2.76-4.848-.46-.668-.888-1.36-1.344-2.028-.012-.016.012-.032.024-.016ZM114.936 82.576c.888.704 2.748 3.32 3.464 5.076.032.072 0 .068-.052 0-.56-.868-2.832-4.228-3.432-5.064-.012-.012.008-.024.02-.012ZM112.588 83.6a12.539 12.539 0 0 1 2.568 4c.028.072-.028.06-.072 0-.828-1.348-1.468-2.4-2.54-3.964-.016-.036.02-.072.044-.036Z" fill="#263238"/><path d="M86.4 55.356c-3.652-5.164-5.836-3.252-5.104 2.356.688 5.244 2.524 11.492 2.524 11.492l9.2-4.464s-4.296-6.076-6.62-9.384Z" fill="#48AF7A"/><path d="M88.62 57.388c.121.292.209.596.26.908.056.313.076.63.06.948-.12-.293-.206-.6-.256-.912a3.906 3.906 0 0 1-.064-.944ZM83.168 60.528a4.4 4.4 0 0 1 1.852-.32c-.292.12-.596.206-.908.256-.311.06-.628.08-.944.064ZM83.404 52.496a4.464 4.464 0 0 1-1.084 1.54 4.464 4.464 0 0 1 1.084-1.54ZM91.2 62.94c-.121.293-.276.57-.46.828-.18.26-.389.5-.624.712a4.463 4.463 0 0 1 1.084-1.54ZM84.8 66.072a4 4 0 0 1-.828-.46c-.261-.18-.5-.389-.712-.624.585.248 1.11.617 1.54 1.084Z" fill="#fff"/><path d="M87.6 56.912c.492.676 1 1.336 1.504 2-.128-.336-.24-.676-.336-1.02h.024c.1.264.216.524.312.8l.144.4a.722.722 0 0 1 .032.084c.4.516.8 1.032 1.168 1.56.452.632.888 1.272 1.328 1.912.44.64.884 1.436 1.36 2.08.044.056-.8.4-.892.444-.092.044-.14-.032-.052-.06.088-.028.76-.44.768-.448-.44-.648-.948-1.244-1.408-1.872-.46-.628-.916-1.256-1.36-1.892-.9-1.296-1.724-2.64-2.62-3.94l.028-.048ZM81.512 61.424c.14.272.292.54.4.82l.152.348c-.212-.996-.4-2-.62-2.996.424 1.6.852 3.236 1.244 4.86.372 1.552.824 3.12 1.04 4.704a5.21 5.21 0 0 1 .864-.292 4.265 4.265 0 0 1-.952.46 49.915 49.915 0 0 1-1.2-4.896c-.1-.448-.192-.896-.288-1.344-.104-.272-.228-.532-.352-.8-.124-.268-.236-.568-.348-.852.024-.016.052-.032.06-.012Z" fill="#263238"/><path d="M83.956 67.66c1.28-.72 6.628-3.488 7.824-4 .084-.036.128 0 .044.056a80.632 80.632 0 0 1-7.84 4c-.032.008-.064-.036-.028-.056Z" fill="#263238"/><path d="M230.528 172.82H108.656l17.62-99.94h121.872l-17.62 99.94ZM167.988 62.528h-39.884l-1.828 10.352h42.684l-.972-10.352Z" fill="#48AF7A"/><g opacity=".1" fill="#000"><path d="M230.528 172.82H108.656l17.62-99.94h121.872l-17.62 99.94ZM167.988 62.528h-39.884l-1.828 10.352h42.684l-.972-10.352Z"/></g><path d="M123.8 66.752a7.66 7.66 0 0 1 0-3.48 7.66 7.66 0 0 1 0 3.48ZM120.256 67.776a6.817 6.817 0 0 1-1.044-1.408 6.928 6.928 0 0 1-.7-1.6c.409.42.76.892 1.044 1.404a7.06 7.06 0 0 1 .7 1.604ZM117.696 70.436a7.674 7.674 0 0 1-3.012-1.74 6.869 6.869 0 0 1 1.6.696c.512.288.987.638 1.412 1.044ZM116.8 74.02a7.668 7.668 0 0 1-3.48 0 7.668 7.668 0 0 1 3.48 0ZM117.84 77.564a7.048 7.048 0 0 1-1.408 1.044c-.502.3-1.039.533-1.6.696a6.802 6.802 0 0 1 1.408-1.044 6.727 6.727 0 0 1 1.6-.696ZM120.496 80.12a7.647 7.647 0 0 1-1.74 3.016 6.73 6.73 0 0 1 .7-1.6c.285-.514.635-.99 1.04-1.416ZM124.08 81.004c.139.57.207 1.154.2 1.74a6.8 6.8 0 0 1-.2 1.74 6.625 6.625 0 0 1-.2-1.74 6.985 6.985 0 0 1 .2-1.74ZM127.624 80c.407.422.758.896 1.044 1.408.301.5.535 1.039.696 1.6a7.659 7.659 0 0 1-1.74-3.016V80ZM130.18 77.32a6.731 6.731 0 0 1 1.6.696c.512.286.986.637 1.408 1.044a6.731 6.731 0 0 1-1.6-.696 6.802 6.802 0 0 1-1.408-1.044ZM131.064 73.736a7.688 7.688 0 0 1 3.484 0 7.688 7.688 0 0 1-3.484 0ZM130.04 70.192a6.925 6.925 0 0 1 1.408-1.04 6.583 6.583 0 0 1 1.6-.7 7.647 7.647 0 0 1-3.016 1.74h.008ZM127.38 67.636c.165-.56.398-1.098.696-1.6a6.817 6.817 0 0 1 1.044-1.408 6.683 6.683 0 0 1-.696 1.6 6.817 6.817 0 0 1-1.044 1.408Z" fill="#263238"/><path d="M230.348 172.82H108.216L90.872 76.508h122.136l17.34 96.312Z" fill="#48AF7A"/><path d="M133.196 135.384a5.077 5.077 0 1 0-.001-10.153 5.077 5.077 0 0 0 .001 10.153ZM173.324 135.384a5.077 5.077 0 1 0-.001-10.153 5.077 5.077 0 0 0 .001 10.153ZM160.552 136.196l-.28-.532c-.024-.048-2.648-4.896-7.924-4.896-4.8 0-6 4.564-6.032 4.76l-.144.58-1.164-.28.14-.584c0-.056 1.432-5.676 7.2-5.676 6 0 8.868 5.312 8.988 5.54l.28.528-1.064.56ZM222.284 129.92l-.084-.4c.26-.056.516-.116.772-.184l.1.4c-.272.068-.524.128-.788.184ZM224.62 129.276l-.128-.376c.5-.172 1-.36 1.484-.564l.156.368c-.492.208-1 .4-1.512.572ZM227.6 128l-.18-.352c.468-.244.936-.508 1.38-.8l.208.34c-.456.316-.932.584-1.408.812Zm2.752-1.692-.236-.324c.432-.316.848-.648 1.24-.988l.264.3c-.42.364-.82.704-1.272 1.028l.004-.016Zm2.44-2.128-.292-.276c.368-.4.716-.8 1.036-1.2l.316.244c-.332.44-.688.852-1.052 1.248l-.008-.016Zm1.98-2.56-.34-.212c.276-.447.522-.912.736-1.392l.368.164a13.47 13.47 0 0 1-.768 1.456l.004-.016Zm1.324-2.968-.4-.112c.146-.502.254-1.014.324-1.532l.4.052a10.234 10.234 0 0 1-.328 1.608l.004-.016Zm.444-3.2h-.4v-.116c0-.484-.028-.976-.076-1.46l.4-.04c.053.498.079.999.08 1.5l-.004.116Zm-.72-3.132a15.735 15.735 0 0 0-.4-1.528l.4-.12c.164.52.304 1.048.4 1.564l-.4.084Zm-.948-3.012c-.192-.472-.4-.956-.656-1.444l.36-.18c.244.496.468.992.664 1.472l-.368.152Zm-1.4-2.852c-.248-.436-.52-.896-.8-1.368l.34-.212c.292.476.568.94.8 1.384l-.34.196Zm-1.672-2.716c-.292-.44-.588-.884-.892-1.328l.332-.224c.304.444.6.888.892 1.336l-.332.216Zm-1.8-2.648c-.3-.44-.604-.884-.9-1.324l.332-.224c.296.44.596.884.896 1.32l-.328.228Zm-1.788-2.664a59.708 59.708 0 0 1-.856-1.36l.34-.208c.28.456.564.904.852 1.352l-.336.216Zm-1.668-2.748a31.2 31.2 0 0 1-.752-1.424l.36-.18c.224.456.476.928.74 1.408l-.348.196Zm-1.42-2.88c-.212-.5-.4-1.008-.576-1.504l.4-.128c.168.484.356.984.564 1.476l-.388.156Zm-1.04-3.052a18.26 18.26 0 0 1-.336-1.6l.4-.064c.088.512.196 1.032.328 1.544l-.392.12Zm-.536-3.2a18.33 18.33 0 0 1-.06-1.484v-.132h.4v.128c0 .484 0 .972.06 1.452l-.4.036Zm.4-3.2-.4-.04c0-.108.02-.22.032-.336.048-.428.108-.856.18-1.264l.4.068c-.068.4-.128.82-.176 1.24a.824.824 0 0 1-.016.344l-.02-.012Zm.556-3.112-.4-.108c.148-.528.32-1.044.512-1.536l.372.144c-.182.495-.337 1-.464 1.512l-.02-.012Zm19.932-2.332c-.224 0-.456-.032-.684-.064a18.108 18.108 0 0 1-.932-.156l.08-.4c.296.056.604.108.908.152.216.028.436.048.648.06l-.02.408Zm1.644-.124-.084-.4a4.62 4.62 0 0 0 1.424-.552l.208.34a4.986 4.986 0 0 1-1.528.624l-.02-.012Zm-20.424-.476-.356-.188c.255-.477.536-.94.844-1.384l.328.228c-.292.436-.558.888-.796 1.356l-.02-.012Zm15.6-.024a15.404 15.404 0 0 1-1.52-.572l.164-.368c.481.214.974.4 1.476.556l-.12.384Zm7.6-1.248-.332-.224c.285-.413.453-.895.488-1.396l.4.028a3.201 3.201 0 0 1-.544 1.604l-.012-.012Zm-10.56-.06a14.67 14.67 0 0 1-1.356-.892l.236-.32c.424.312.864.6 1.32.864l-.2.348Zm-10.84-1.248-.296-.268c.362-.403.748-.784 1.156-1.14l.264.3c-.392.351-.764.725-1.112 1.12l-.012-.012Zm8.236-.676a14.912 14.912 0 0 1-1.132-1.164l.3-.264c.346.397.713.775 1.1 1.132l-.268.296Zm13.02-1.084a3.909 3.909 0 0 0-.932-1.2l.264-.3c.425.368.774.815 1.028 1.316l-.36.184Zm-18.888-.316-.228-.328a15.53 15.53 0 0 1 1.388-.844l.188.352c-.46.254-.905.532-1.336.832l-.012-.012Zm3.736-1.04a12.72 12.72 0 0 1-.44-.664l-.52.204-.152-.368.46-.184c-.072-.12-.144-.24-.212-.36l.348-.196c.08.14.16.28.244.4.224-.08.452-.156.684-.228l.116.4c-.196.06-.4.124-.584.192.124.196.252.4.4.572l-.344.232Zm12.932-.688a8.51 8.51 0 0 0-1.2-.488l-.264-.084.116-.4.272.088c.429.137.846.306 1.248.508l-.172.376Zm-10.872-.716-.084-.4a19.568 19.568 0 0 1 1.6-.288l.06.4c-.528.084-1.052.184-1.564.3l-.012-.012Zm7.88-.216c-.5-.088-1.028-.156-1.568-.204l.032-.4a17.24 17.24 0 0 1 1.6.208l-.064.396Zm-4.74-.232-.028-.4c.476-.028.952-.044 1.424-.044h.196v.4h-.192c-.452.012-.924.024-1.388.056l-.012-.012ZM232 68.8c-.216-.488-.4-.996-.58-1.512l.4-.124c.168.504.356 1 .564 1.476l-.384.16Zm-1.012-3.072c-.12-.516-.22-1.052-.296-1.6l.4-.056c.076.528.172 1.052.288 1.56l-.392.096Zm-.448-3.2c-.02-.36-.032-.728-.032-1.096v-.52h.4v.512c0 .36 0 .724.028 1.072l-.396.032Zm.476-3.2-.4-.04c.056-.528.132-1.068.224-1.6l.4.068a15.208 15.208 0 0 0-.236 1.58l.012-.008Zm.548-3.124-.4-.096c.128-.516.276-1.036.44-1.556l.4.124c-.18.524-.328 1.032-.452 1.536l.012-.008Zm.96-3.028-.372-.144c.196-.5.4-1 .644-1.484l.36.176c-.24.48-.452.968-.644 1.476l.012-.024Zm1.376-2.852-.348-.204c.272-.46.564-.92.868-1.36l.328.228c-.312.44-.596.888-.86 1.344l.012-.008Zm1.804-2.604-.312-.252c.336-.4.696-.824 1.068-1.2l.288.276c-.376.376-.728.776-1.056 1.184l.012-.008Zm2.176-2.304-.268-.296c.4-.356.8-.708 1.228-1.048l.248.316c-.428.34-.836.688-1.22 1.036l.012-.008Zm2.484-1.976-.228-.332c.436-.3.892-.596 1.356-.876l.204.34c-.464.284-.896.576-1.344.876l.012-.008Zm2.716-1.652-.188-.352c.472-.252.96-.492 1.448-.716l.168.364c-.508.228-.976.468-1.44.712l.012-.008Zm2.892-1.328-.148-.376c.504-.196 1.012-.4 1.516-.548l.128.4c-.508.152-1.012.336-1.508.532l.012-.008ZM249.056 39.448l-.1-.4c.496-.128.8-.184.8-.184l.072.4s-.288.06-.772.184Z" fill="#263238"/><path d="M256.128 36.864c-1.02-3.16-7.852-2.024-6.52 2.108 1.332 4.132 7.54 1.056 6.52-2.108Z" fill="#263238"/><path d="M245.892 35.6c.052-1.388 1.98-2.456 4.708-1.964s5.292 2.332 5.292 2.332-2.692 1.632-5.448 1.932c-2.756.3-4.604-.916-4.552-2.3Z" fill="#EBEBEB"/><path d="M255.892 35.96c-1.416 0-2.828-.04-4.24-.084a88.52 88.52 0 0 1-4.24-.228c1.416 0 2.832.036 4.244.08 1.412.044 2.828.116 4.236.232Z" fill="#263238"/><path d="M248.632 34.364c.804.385 1.562.858 2.26 1.412a10.721 10.721 0 0 1-1.168-.64 11.451 11.451 0 0 1-1.092-.772ZM252.34 35.828A13.003 13.003 0 0 1 250 37.34a12.98 12.98 0 0 1 2.352-1.512h-.012ZM252.752 35.048c.404.194.757.479 1.032.832a2.899 2.899 0 0 1-1.032-.832Z" fill="#263238"/><path d="M248.492 43.82c.852 1.096 3.04.832 4.964-1.16 1.924-1.992 2.944-4.988 2.944-4.988s-3.152.24-5.556 1.6-3.208 3.448-2.352 4.548Z" fill="#EBEBEB"/><path d="M256.4 37.672c-1.152.8-2.272 1.688-3.396 2.548a81.339 81.339 0 0 0-3.3 2.664c1.152-.8 2.272-1.684 3.392-2.544a93.545 93.545 0 0 0 3.304-2.668Z" fill="#263238"/><path d="M251.432 43.2c.214-.389.405-.79.572-1.2.17-.412.314-.834.432-1.264-.214.388-.405.789-.572 1.2a11.28 11.28 0 0 0-.432 1.264ZM253.6 39.856c-.936-.05-1.875 0-2.8.148.466.028.934.028 1.4 0 .469-.023.936-.072 1.4-.148ZM254.372 40.252a3.008 3.008 0 0 0 .352-1.284 2.975 2.975 0 0 0-.352 1.284Z" fill="#263238"/><path d="M256.128 36.864a1.2 1.2 0 1 1-.741-2.282 1.2 1.2 0 0 1 .741 2.282Z" fill="#455A64"/><path d="M256.864 39.148a1.199 1.199 0 1 1-.739-2.28 1.199 1.199 0 0 1 .739 2.28Z" fill="#455A64"/><path d="M125.724 38.128a9.972 9.972 0 0 1-6.384 8.288 9.966 9.966 0 0 1-10.272-1.98l-4.988.732 2.496-4.312a9.968 9.968 0 1 1 19.148-2.728Z" fill="#fff"/><path d="M125.724 38.128a10.005 10.005 0 0 1-2 5.052 8.832 8.832 0 0 1-1.956 1.932 9.688 9.688 0 0 1-2.4 1.34 9.813 9.813 0 0 1-2.684.64c-.46.041-.923.05-1.384.028a8.872 8.872 0 0 1-1.38-.144 10.065 10.065 0 0 1-4.932-2.436l.116.036-4.98.764-.364.056.184-.32 2.48-4.32v.172a10.072 10.072 0 0 1 .616-8.884 10.213 10.213 0 0 1 3.12-3.328 10.154 10.154 0 0 1 8.764-1.2 10.21 10.21 0 0 1 3.844 2.36 9.997 9.997 0 0 1 2.956 8.252Zm0 0a9.852 9.852 0 0 0-2.992-8.184 9.857 9.857 0 0 0-8.312-2.616 9.75 9.75 0 0 0-4.116 1.624 10.275 10.275 0 0 0-2.984 3.256 9.852 9.852 0 0 0-.564 8.592l.036.088-.048.084-2.512 4.304-.176-.264 4.992-.7h.068l.048.044a9.822 9.822 0 0 0 4.776 2.444c.446.09.898.146 1.352.164.454.032.91.032 1.364 0a9.997 9.997 0 0 0 2.664-.588 9.38 9.38 0 0 0 2.4-1.296 9.113 9.113 0 0 0 1.96-1.908 9.997 9.997 0 0 0 2.044-5.044Z" fill="#263238"/><path d="M110.936 41.74a.958.958 0 0 1 .266-.724.955.955 0 0 1 .71-.3 1.023 1.023 0 1 1 0 2.048.964.964 0 0 1-.918-.635.957.957 0 0 1-.058-.389Zm.4-2.364-.232-7.936h1.6l-.232 7.936h-1.136ZM114.74 41.74a.97.97 0 0 1 .972-1.024 1.023 1.023 0 1 1-.385 1.97.964.964 0 0 1-.587-.946Zm.4-2.364-.22-7.936h1.6l-.232 7.936h-1.148ZM118.54 41.74a.958.958 0 0 1 .266-.724.955.955 0 0 1 .71-.3 1.023 1.023 0 1 1 0 2.048.964.964 0 0 1-.918-.635.957.957 0 0 1-.058-.389Zm.4-2.364-.232-7.936h1.6l-.228 7.936h-1.14Z" fill="#48AF7A"/></svg>