<svg width="74" height="74" viewBox="0 0 74 74" fill="none" xmlns="http://www.w3.org/2000/svg">
<path d="M68.1061 37.7583C68.1203 37.2492 68.1203 36.7402 68.1061 36.2311L73.3809 29.6411C73.6575 29.2951 73.8489 28.889 73.9398 28.4554C74.0307 28.0219 74.0185 27.5731 73.9042 27.1451C73.0379 23.8952 71.7445 20.7745 70.0577 17.8647C69.8366 17.484 69.5297 17.1602 69.1615 16.919C68.7932 16.6777 68.3737 16.5258 67.9364 16.4753L59.5505 15.542C59.2017 15.1743 58.8481 14.8207 58.4899 14.4813L57.5 6.07418C57.449 5.63654 57.2966 5.21685 57.0547 4.84857C56.8129 4.48029 56.4884 4.1736 56.107 3.95295C53.1974 2.26745 50.0766 0.976321 46.8266 0.113515C46.3987 -0.000819035 45.9498 -0.0130367 45.5163 0.0778466C45.0828 0.16873 44.6766 0.360173 44.3306 0.636752L37.7583 5.88327C37.2492 5.88327 36.7402 5.88327 36.2311 5.88327L29.6411 0.619076C29.2951 0.342496 28.889 0.151053 28.4554 0.06017C28.0219 -0.0307133 27.5731 -0.0184964 27.1451 0.0958375C23.8952 0.962104 20.7745 2.25555 17.8647 3.94234C17.484 4.16339 17.1602 4.47026 16.919 4.83852C16.6777 5.20678 16.5258 5.62626 16.4753 6.06357L15.542 14.4637C15.1743 14.8148 14.8207 15.1684 14.4813 15.5243L6.07418 16.4894C5.63654 16.5404 5.21685 16.6928 4.84857 16.9346C4.48029 17.1765 4.1736 17.501 3.95295 17.8824C2.26779 20.7926 0.975564 23.9132 0.109979 27.1628C-0.00387102 27.591 -0.0155156 28.04 0.0759842 28.4735C0.167484 28.9071 0.359568 29.3131 0.636752 29.6588L5.88327 36.2311C5.88327 36.7402 5.88327 37.2492 5.88327 37.7583L0.619076 44.3483C0.342496 44.6943 0.151053 45.1004 0.06017 45.534C-0.0307133 45.9675 -0.0184964 46.4163 0.0958375 46.8443C0.962104 50.0942 2.25555 53.2149 3.94234 56.1247C4.16339 56.5054 4.47026 56.8292 4.83852 57.0704C5.20678 57.3117 5.62626 57.4636 6.06357 57.5141L14.4495 58.4474C14.8007 58.8151 15.1542 59.1687 15.5101 59.5081L16.4894 67.9152C16.5404 68.3529 16.6928 68.7725 16.9346 69.1408C17.1765 69.5091 17.501 69.8158 17.8824 70.0365C20.7926 71.7216 23.9132 73.0138 27.1628 73.8794C27.591 73.9933 28.04 74.0049 28.4735 73.9134C28.9071 73.8219 29.3131 73.6298 29.6588 73.3526L36.2311 68.1061C36.7402 68.1203 37.2492 68.1203 37.7583 68.1061L44.3483 73.3809C44.6943 73.6575 45.1004 73.8489 45.534 73.9398C45.9675 74.0307 46.4163 74.0185 46.8443 73.9042C50.0947 73.0394 53.2156 71.7459 56.1247 70.0577C56.5054 69.8366 56.8292 69.5297 57.0704 69.1615C57.3117 68.7932 57.4636 68.3737 57.5141 67.9364L58.4474 59.5505C58.8151 59.2017 59.1687 58.8481 59.5081 58.4899L67.9152 57.5C68.3529 57.449 68.7725 57.2966 69.1408 57.0547C69.5091 56.8129 69.8158 56.4884 70.0365 56.107C71.7216 53.1968 73.0138 50.0762 73.8794 46.8266C73.9933 46.3984 74.0049 45.9494 73.9134 45.5159C73.8219 45.0823 73.6298 44.6763 73.3526 44.3306L68.1061 37.7583Z" fill="#007F4E"/>
<path fill-rule="evenodd" clip-rule="evenodd" d="M52.3429 20.0071C46.9916 20.2837 47.2094 20.2497 46.8586 20.8641C46.4536 21.5731 46.644 21.995 47.9571 23.299L48.9323 24.2675L41.9745 31.2256L35.0167 38.1838L31.7587 34.9419C29.6682 32.8619 28.3895 31.6467 28.1906 31.5511C27.7671 31.3476 26.7548 31.3457 26.3685 31.5476C25.8839 31.8009 17.3094 40.4132 17.0956 40.8615C16.4436 42.2282 17.5756 44.0256 19.1599 44.1389C20.0913 44.2056 20.0317 44.2526 23.8501 40.4336L27.2577 37.0252L30.5154 40.272C33.9896 43.7345 34.0357 43.7725 34.8388 43.8299C35.8646 43.9034 35.1995 44.4945 44.1398 35.5647L52.1805 27.5336L53.2596 28.5892C54.6527 29.9519 55.0567 30.0774 55.8233 29.3848C56.2597 28.9905 56.2933 28.7812 56.4561 25.4436C56.7538 19.3412 57.0727 19.7627 52.3429 20.0071ZM49.183 33.7867L46.2176 36.7528V44.8768C46.2176 53.8239 46.1967 53.435 46.6861 53.6056C47.0971 53.7489 52.0551 53.7262 52.3383 53.5796C52.7421 53.3709 52.7306 53.7083 52.7306 42.105V31.2373L52.5131 31.0289C52.3935 30.9143 52.2625 30.8206 52.222 30.8206C52.1815 30.8206 50.8139 32.1554 49.183 33.7867ZM40.8289 42.1425C39.2084 43.7643 37.7693 45.1689 37.631 45.2636L37.3796 45.436L37.379 49.3575L37.3785 53.2789L37.5785 53.4669L37.7785 53.6549L40.4844 53.6771C43.3776 53.7009 43.5346 53.6831 43.7346 53.3095C43.7886 53.2085 43.8083 50.8781 43.795 46.1766L43.7752 39.1937L40.8289 42.1425ZM28.4619 47.3632V53.2058L28.6492 53.4077C28.92 53.7001 28.9462 53.7023 31.8524 53.6775L34.5063 53.6549L34.7212 53.4399L34.9362 53.225L34.9585 49.715L34.9808 46.2051L34.3501 46.1132C33.1012 45.9312 32.8074 45.728 30.5521 43.4877C29.4629 42.4058 28.547 41.5205 28.5169 41.5205C28.4866 41.5205 28.4619 44.1497 28.4619 47.3632ZM23.8874 43.6373C21.4907 46.0122 21.3254 46.1244 19.7586 46.4425L19.5454 46.4858V49.7484C19.5454 54.1463 19.1655 53.6937 22.856 53.6937C25.7199 53.6937 25.8118 53.6796 25.9724 53.2192C26.0712 52.9358 26.0983 41.5969 26.0002 41.5997C25.9682 41.6006 25.0174 42.5175 23.8874 43.6373Z" fill="white"/>
</svg>
